<?xml version="1.0" encoding="utf-8"?>
<!-- Generator: Adobe Illustrator 21.0.0, SVG Export Plug-In . SVG Version: 6.00 Build 0)  -->
<svg version="1.1" id="Layer_1" xmlns="http://www.w3.org/2000/svg" xmlns:xlink="http://www.w3.org/1999/xlink" x="0px" y="0px"
	 viewBox="0 0 1200 800" style="enable-background:new 0 0 1200 800;" xml:space="preserve">
<style type="text/css">
	.st0{fill:#111617;}
	.st1{fill:#FFFFFF;}
	.st2{fill:#10A1B8;}
	.st3{fill:#0063B8;}
	.st4{fill:#242424;}
	.st5{opacity:0.25;}
</style>
<g>
	<rect x="289.6" y="485.1" class="st3" width="83.6" height="20.8"/>
</g>
<g>
	<polygon class="st3" points="243.9,413.8 223.1,434.6 223.1,505.8 243.9,505.8 243.9,434.6 309.2,434.6 309.2,413.8 243.9,413.8 	
		"/>
	<polygon class="st3" points="243.9,360.2 243.9,349.8 223.1,349.8 223.1,381 	"/>
</g>
<polygon class="st4" points="216.3,428.2 186.9,428.2 288.8,326.4 389.9,428.2 360.5,428.2 288.7,355.8 "/>
<g>
	<polygon class="st3" points="344.1,371 344.1,349.8 323.3,349.8 323.3,350.1 	"/>
	<polygon class="st3" points="323.3,401.8 323.3,505.8 344.1,505.8 344.1,422.7 	"/>
</g>
<polygon class="st3" points="343.7,370.7 373.2,370.7 373.2,349.9 323.1,349.9 "/>
<rect x="276" y="381" width="10.4" height="10.4"/>
<rect x="289.4" y="381" width="10.4" height="10.4"/>
<rect x="276" y="394.5" width="10.4" height="10.4"/>
<rect x="289.4" y="394.5" width="10.4" height="10.4"/>
<g>
	<path class="st3" d="M472.1,457.5v-29.6h-36v29.6h-13.8v-73.2h13.8v30.9h36v-30.9h13.7v73.2H472.1z"/>
	<path class="st3" d="M570.7,421.2c-0.2,18.9-11.8,37.9-37.6,37.9c-25.7,0-37.7-18.5-37.7-37.8c0-19.3,12.3-38.6,37.7-38.6
		C558.4,382.7,570.9,402,570.7,421.2z M509.1,421.5c0.3,12,6.8,24.9,24.1,24.9c17.3,0,23.8-13,24-25c0.2-12.3-6.7-26.2-24-26.2
		C515.9,395.2,508.8,409.1,509.1,421.5z"/>
	<path class="st3" d="M644.7,404.3l-23.9,31.8h-2.7l-23.3-31.9v53.3H581v-73.2h15.9l22.9,31.5l22.9-31.5h15.8v73.2h-13.8V404.3z"/>
	<path class="st3" d="M726.1,457.4h-54.8c0-24.4,0-48.9,0-73.2h54.8v13.4h-41.1v16.8h39.7v12.9h-39.7v16.5h41.1V457.4z"/>
	<path class="st4" d="M759.9,396.7h-23.2v-12.6c21.1,0,39,0,60.3,0v12.6h-23.2v60.7h-13.8V396.7z"/>
	<path class="st4" d="M877.3,421.2c-0.2,18.9-11.8,37.9-37.6,37.9c-25.7,0-37.7-18.5-37.7-37.8c0-19.3,12.3-38.6,37.7-38.6
		C865,382.7,877.5,402,877.3,421.2z M815.7,421.5c0.3,12,6.8,24.9,24.1,24.9s23.8-13,24-25c0.2-12.3-6.7-26.2-24-26.2
		S815.4,409.1,815.7,421.5z"/>
	<path class="st4" d="M963.3,457.4h-11.7l-9.1-23l-7.7-23.1l-7.6,23.3l-8.9,22.8h-11.7l-26.9-73.2h15.5l17.3,52.8l17.8-52.8h9
		l18.3,52.8l16.7-52.8h15.5L963.3,457.4z"/>
	<path class="st4" d="M1046.3,384h13.8v73.3h-8.6v0.1L1013,408v49.4h-13.8v-73.2h11.2l35.9,45.4V384z"/>
</g>
<g>
	<path class="st4" d="M424.4,504.1v-30.6h2.3v30.6H424.4z"/>
	<path class="st4" d="M478.2,473.5l20.6,25.3v-25.3h2.3v30.6h-0.9l-20.6-25.3v25.3h-2.4v-30.6H478.2z"/>
	<path class="st4" d="M577.2,488.5c0.2,7.8-4.8,15.7-15.5,15.7c-3.5,0-6.9,0-10.4,0v-30.6c3.5,0,6.9,0,10.4,0
		C572.1,473.5,577.1,481,577.2,488.5z M553.7,475.8v26.1h8c9.1,0,13.3-6.8,13.2-13.4c-0.1-6.4-4.3-12.7-13.2-12.7H553.7z"/>
	<path class="st4" d="M649.7,473.5v19c0,16-23.4,16-23.4,0v-19h2.3v19c0,13.2,18.8,13.1,18.8,0v-19H649.7z"/>
	<path class="st4" d="M719.7,479.4c-2.2-3.6-5.8-4.1-9.3-4.2c-3.6,0-9.3,1.3-9.3,6.2c0,3.9,4.2,4.8,9.4,5.8c5.9,1.1,12,2.2,12,8.8
		c0,6.9-7,8.6-12.1,8.6c-4.8,0-10.2-2-12.5-6.6l2.1-1c1.9,3.7,6.7,5.6,10.4,5.6c3.8,0,9.7-1,9.7-6.5c0-4.6-5-5.6-10.1-6.6
		c-5.6-1.1-11.3-2.2-11.3-7.9c-0.1-6.5,6.6-8.5,11.6-8.5c4.4,0,8.2,0.7,11.2,5.2L719.7,479.4z"/>
	<path class="st4" d="M779.9,475.7h-11.1v-2.1h24.5v2.1h-11.1v28.5h-2.4V475.7z"/>
	<path class="st4" d="M865.9,504.1h-3.1l-10.6-11.6h-8.4v11.6h-2.4v-30.6c4.5,0,9,0,13.5,0c6.6,0,10,4.8,10.1,9.5
		c0,5-3.2,9.4-9.9,9.4L865.9,504.1z M843.9,490.3h10.8c5.3,0,7.7-3,7.7-7.3c0-3.6-2.4-7.3-7.5-7.3h-11.1V490.3z"/>
	<path class="st4" d="M913.6,504.1v-30.6h2.3v30.6H913.6z"/>
	<path class="st4" d="M968.6,487.7h17.9v2.1h-17.9v12.1H988v2.3h-21.6v-30.6h21.1v2.2h-18.8V487.7z"/>
	<path class="st4" d="M1057.6,479.4c-2.2-3.6-5.8-4.1-9.3-4.2c-3.6,0-9.3,1.3-9.3,6.2c0,3.9,4.2,4.8,9.4,5.8c5.9,1.1,12,2.2,12,8.8
		c0,6.9-7,8.6-12.1,8.6c-4.8,0-10.2-2-12.5-6.6l2.1-1c1.9,3.7,6.7,5.6,10.4,5.6c3.8,0,9.7-1,9.7-6.5c0-4.6-5-5.6-10.1-6.6
		c-5.6-1.1-11.3-2.2-11.3-7.9c-0.1-6.5,6.6-8.5,11.6-8.5c4.4,0,8.2,0.7,11.2,5.2L1057.6,479.4z"/>
</g>
<polygon class="st5" points="233.5,505.9 233.5,424.2 309.2,424.2 309.2,434.6 243.9,434.6 243.9,505.8 "/>
<polygon class="st5" points="289.6,496.9 333.7,496.9 333.7,412.2 323.3,401.8 323.3,485.1 289.6,485.1 "/>
<polygon class="st5" points="202.1,428.2 288.4,342.2 375.1,428.2 362,428.2 360.5,428.2 288.7,355.8 216.3,428.2 "/>
<polygon class="st5" points="233.5,370.6 233.5,349.9 243.9,349.9 243.9,360.2 "/>
<polygon class="st5" points="373.2,359.6 332.7,359.6 344.1,371 373.2,371 "/>
<rect x="344.1" y="485.1" class="st5" width="29.1" height="11.8"/>
</svg>
